<svg xmlns="http://www.w3.org/2000/svg" height="100%" width="100%"  xmlns:xlink="http://www.w3.org/1999/xlink" viewBox="0 150 1037 700"><rect id="svgEditorBackground" x="0" y="150" width="1037" height="700" style="fill: none; stroke: none;"/><path d="M0,788l0,-576q0,-1,3,-19l339,290l-338,325q-4,-14,-4,-20ZM45,153q7,-3,17,-3l913,0q9,0,18,3l-340,291l-45,36l-89,73l-89,-73l-45,-36ZM46,847l341,-327l132,107l132,-107l341,327q-8,3,-17,3l-913,0q-8,0,-16,-3ZM696,483l338,-290q3,9,3,19l0,576q0,9,-3,20Z"/><text fill="white" x="277.91" y="353.19" id="e1_texte" style="font-family: Arial; font-size: 220px;" stroke="black"  dy="" dx="">SMS</text></svg>